<?xml version="1.0" encoding="UTF-8"?>
<svg id="_レイヤー_3" data-name=" レイヤー 3" xmlns="http://www.w3.org/2000/svg" version="1.1" viewBox="0 0 970 823">
  <defs>
    <style>
      .cls-1 {
        fill: #fff;
        stroke-miterlimit: 10;
        stroke-width: 10px;
      }

      .cls-1, .cls-2 {
        stroke: #000;
      }

      .cls-2 {
        stroke-miterlimit: 10;
      }

      .cls-2, .cls-3 {
        fill: #000;
      }

      .cls-3 {
        stroke-width: 0px;
      }
    </style>
  </defs>
  <g>
    <rect class="cls-1" x="342.2" y="434.8" width="213" height="176.7" transform="translate(-214.1 712.2) rotate(-65.3)"/>
    <polygon class="cls-3" points="449 370.9 394.7 489.2 403.6 493.3 355.9 597.4 366.9 602.4 414.7 498.3 423.3 502.3 477.6 384.1 449 370.9"/>
    <polygon class="cls-3" points="492.4 390.5 438.1 508.7 447 512.8 399.2 616.9 410.2 621.9 458 517.9 466.7 521.9 521 403.6 492.4 390.5"/>
    <polygon class="cls-3" points="534.2 409.4 479.9 527.6 488.9 531.7 441.1 635.8 452.1 640.8 499.9 536.8 508.6 540.7 562.8 422.5 534.2 409.4"/>
  </g>
  <path class="cls-2" d="M830.2,703.4s-54.3-11.7-85.5-62.2-34.9-79.8-44.2-134.5c-6.6-38.7-11.3-58.7-17.5-81.5-9.1-33.4-19.9-59.9-28.1-77.9-36.2-72.9-111.4-123.1-198.3-123.1s-130,31.3-170.6,80.3c0,0-174.8,145.8-178.4,148.8s-2.4,8.5-2.4,8.5c0,0-55.1,36.9-59.4,39.8s0,8.1,0,8.1l7.9,9.7,6.6,8.2s3.6,5.9,9.3,0,48.3-49.5,48.3-49.5c0,0,5.7,2.4,8.6,0,2.8-2.2,102.5-84.8,118.6-98.2-3.7,12-6.4,24.4-8.1,37.2,0,0-1.8,14.1-1.8,28.3,0,48.2,21,93.3,21,93.3,24.1,51.9,61.3,79.8,69.6,85.8,59.6,43.2,123,41.2,141.4,40.4,48.5-2.2,84.9-19.4,104.1-30.2,0,2.6-1.3,26.4-94.3,73.6,0,0-31,11.6-31.4,24.5s13.3,21.5,30.4,27.5,78.8,27.6,191.6,23.2,207.9-21.7,206.8-49.6c-1.2-3.7-2.8-6.7-4.4-9.2-11.5-17.8-34-20.8-39.7-21.3h0ZM456.1,622c-97.7,0-177-79.2-177-177s79.2-177,177-177,177,79.2,177,177-79.2,177-177,177h0Z"/>
  <g>
    <path class="cls-3" d="M909.7,515.6c-6.2-2.9-117.7-35.7-117.7-35.7,0,0-54.5-36.8-112-61.4s-324.5-136.3-441.2-217.6c0,0-17.1-10.2-17-37.7s.9-72.2.2-75.9c-.7-3.8-2-35.2-21.1-38.2s-48.9,38.2-48.9,38.2c0,0-22.4,22.9-49.4,82,0,0-67.1,147.5-26.9,167.6,0,0,20.6,11.9,73.5-44.1,0,0,25.5-26.7,45.8-21.5,20.4,5.2,63.9,17.4,63.9,17.4,0,0,6,1,1.9,5s-3.6,3-13.5,2.7c0,0-58.3-3.5-70.3,19.7s1.5,124.8,383.9,272.2c0,0,200.6,69,228.6,12.1,0,0,21.6-41.5-90.4-120.9,0,0-4.2-2.5-2-6.2,2.3-3.8,4.3-1.8,6-1.2s82.4,28.8,82.4,28.8l98.1,61.4s6.7,5.5,11.6-.2c4.9-5.7,17.5-39.1,17.5-39.1,0,0,2.8-4.4-3.3-7.3h.3ZM740.5,578.2c-21.8,44.5-212.4-.3-376.7-95s-141.5-142.9-141.5-142.9c32.4-44.4,174.4-.9,281.5,45.8,107.1,46.7,258.5,147.6,236.6,192.1h0Z"/>
    <polygon class="cls-2" points="485 279 486.5 321.9 520 295.1 485 279"/>
    <polyline class="cls-2" points="563.1 314.8 528.1 298.7 529.6 341.5"/>
    <polyline class="cls-2" points="606.1 334.6 571.1 318.5 572.6 361.3"/>
  </g>
</svg>