<?xml version="1.0" encoding="UTF-8"?>
<svg id="_レイヤー_2" data-name="レイヤー 2" xmlns="http://www.w3.org/2000/svg" viewBox="0 0 100 100">
  <defs>
    <style>
      .cls-1 {
        fill: #231815;
        stroke-width: 0px;
      }
    </style>
  </defs>
  <path class="cls-1" d="M67.18,4h-34.03c-14.9,0-26.99,12.08-26.99,26.99v38.02c0,14.9,12.08,26.99,26.99,26.99h34.03c14.9,0,26.99-12.08,26.99-26.99V30.99c0-14.9-12.08-26.99-26.99-26.99ZM84.38,67.98c0,10.02-8.12,18.15-18.15,18.15h-32.14c-10.02,0-18.15-8.12-18.15-18.15v-35.87c0-10.02,8.12-18.15,18.15-18.15h32.14c10.02,0,18.15,8.12,18.15,18.15v35.87Z"/>
  <circle class="cls-1" cx="72.54" cy="25.7" r="5.46"/>
  <path class="cls-1" d="M49.2,26.66c-12.89,0-23.34,10.45-23.34,23.34s10.45,23.34,23.34,23.34,23.34-10.45,23.34-23.34-10.45-23.34-23.34-23.34ZM50.16,63.96c-7.69,0-13.92-6.23-13.92-13.92s6.23-13.92,13.92-13.92,13.92,6.23,13.92,13.92-6.23,13.92-13.92,13.92Z"/>
</svg>