<?xml version="1.0" encoding="UTF-8"?>
<svg id="_レイヤー_2" data-name="レイヤー 2" xmlns="http://www.w3.org/2000/svg" viewBox="0 0 100 100">
  <defs>
    <style>
      .cls-1 {
        fill: none;
        stroke: #fff;
        stroke-miterlimit: 10;
        stroke-width: 6px;
      }

      .cls-2 {
        fill: #fff;
        stroke-width: 0px;
      }
    </style>
  </defs>
  <path class="cls-2" d="M80.79,13H17.56c-8.55,0-15.48,6.93-15.48,15.48v43.03c0,8.55,6.93,15.48,15.48,15.48h63.23c8.55,0,15.48-6.93,15.48-15.48V28.48c0-8.55-6.93-15.48-15.48-15.48ZM89.84,72.52c0,4.01-3.25,7.26-7.26,7.26H16.54c-4.01,0-7.26-3.25-7.26-7.26V27.49c0-4.01,3.25-7.26,7.26-7.26h66.04c4.01,0,7.26,3.25,7.26,7.26v45.03Z"/>
  <polyline class="cls-1" points="7.62 20.62 49 63.69 90.74 20.93"/>
</svg>