<?xml version="1.0" encoding="UTF-8"?>
<svg id="_レイヤー_1" data-name="レイヤー 1" xmlns="http://www.w3.org/2000/svg" viewBox="0 0 437 179.98">
  <defs>
    <style>
      .cls-1 {
        fill: #231815;
        stroke-width: 0px;
      }
    </style>
  </defs>
  <path class="cls-1" d="M82.87,162.31c-.32,0-6.86,0-7.2,0-2,0-4,0-6,0-.39,0,98.18-47.52,97.78-47.52,0-.03-105.34,40.17-105.34,40.14,0-2.12,0-4.25,0-6.37,0-.03,0-9.34,0-9.36v-13.88s0-6.72,0-6.74v-7.88c0-1.75,0-3.5,0-5.25,0-.05,161.16-27.1,161.16-27.15-1.09-1.66-163.33,16.9-164.41,15.24-1.52-2.32-3.04-4.65-4.56-6.97-.02-.03-3.57-5.45-3.57-5.46,0,0-4.53-6.92-4.56-6.97-1.33-2.03-2.66-4.06-3.99-6.1-1.78-2.72,208.35-9.53,206.57-12.25-1.71-2.61-215.33-1.14-217.03-3.75,0-.01-4.33-6.62-4.33-6.63-1.19-1.82-2.38-3.64-3.57-5.46-.02-.03-5.3-8.11-5.3-8.11-.02-.02-3.02-4.62-3.02-4.62,0,0-3.45-5.28-3.47-5.31,0-.01-4.99-7.63-5.01-7.66-1.73-2.65,162.17,103.17,160.44,100.52.09,0-158.22-108.47-158.13-108.47.11,0,5.21,0,5.24,0,.02,0,4.79,0,4.88,0,.07,0,6.99,0,7.06,0,0,0,1.99,3.16,1.99,3.17.01.02,3.09,4.9,3.09,4.91,0,0,2.81,4.46,2.83,4.49,1.59,2.53,3.18,5.05,4.77,7.58,0,0,3.64,5.78,3.65,5.8,1.13,1.78,2.25,3.57,3.37,5.35,1.11,1.77,2.22,3.53,3.33,5.3l3.66,5.82c1.22,1.94,2.44,3.88,3.66,5.82.03.04,6.05,9.61,6.06,9.62,0,0,4.45,7.08,4.46,7.09,0,.01,2.49,3.96,2.5,3.97.02.03,3.36,5.34,3.38,5.37,1.16-1.89,2.33-3.79,3.49-5.68,0,0,109.77-67.24,109.77-67.25.92-1.5-104.77,59.11-103.84,57.6.83-1.35,1.66-2.7,2.49-4.06,0,0,4.65-7.56,4.7-7.65,1.6-2.6,3.19-5.19,4.79-7.79,1.03-1.68,2.07-3.36,3.1-5.04.01-.02,5.42-8.81,5.45-8.87.03-.05,5.08-8.26,5.08-8.27.04-.07,114.95,54.74,114.97,54.7.06-.1-104.42-71.88-104.36-71.98h23.59c-.05.07-5.8,8.97-5.85,9.04-.07.11-4.93,7.62-4.93,7.63-1.88,2.91-3.76,5.81-5.64,8.72,0,0-5.5,8.5-5.53,8.55-.05.08-6.99,10.81-7,10.82-.03.05-5.3,8.2-5.33,8.23-.01.02-5.65,8.74-5.69,8.79-.05.08-5.42,8.38-5.42,8.38-.04.06-4.66,7.2-4.68,7.24,0,0-5.16,7.98-5.21,8.05-.01.02-4.35,6.72-4.36,6.74v14.05c0,3.87,0,7.75,0,11.62s0,7.49,0,11.24v17.63c0,.06,0,9.2,0,9.26Z"/>
  <path class="cls-1" d="M234.86,31.44c-6.92-5.03-15.77-7.54-26.54-7.54-4.37,0-8.67.44-12.89,1.31-4.23.87-7.97,2.33-11.25,4.37-3.28,2.04-5.9,4.77-7.87,8.19-1.97,3.42-2.95,7.69-2.95,12.78,0,4.81,1.42,8.71,4.26,11.69s6.63,5.43,11.36,7.32c4.74,1.89,103.37,91.61,109.34,92.85,5.97,1.24-81.23-85.57-75.04-84.12,6.19,1.46,12.27,3.17,18.24,5.14,5.97,1.97,11.32,4.63,16.05,7.97,4.74,3.36,8.52,7.58,11.36,12.68,2.84,5.1,4.26,11.51,4.26,19.22,0,8.3-1.86,15.4-5.57,21.3-3.72,5.9-8.49,10.7-14.31,14.42-5.83,3.71-12.34,6.41-19.55,8.08-7.21,1.67-14.38,2.51-21.52,2.51-8.74,0-17.01-1.09-24.79-3.28-7.79-2.19-14.64-5.49-20.54-9.94-5.9-4.44-10.56-10.12-13.98-17.04-3.42-6.92,145.39-25.97,145.39-35.44l-130.86,10.86c0,6.55,1.27,12.2,3.82,16.93,2.54,4.73,5.9,8.63,10.05,11.69,4.15,3.05,8.99,5.32,14.53,6.77,5.53,1.46,11.21,2.19,17.04,2.19,4.66,0,9.36-.44,14.09-1.31,4.73-.87,8.99-2.37,12.78-4.48,3.78-2.11,6.84-4.99,9.17-8.63,2.33-3.64,3.5-8.3,3.5-13.98,0-5.39-1.42-9.76-4.26-13.11-2.84-3.35-6.63-6.08-11.36-8.19-4.74-2.11-10.09-3.82-16.06-5.14-5.97-1.31-12.05-2.65-18.24-4.04-6.19-1.38-12.27-2.98-18.24-4.8-5.97-1.82-11.33-4.23-16.06-7.21-4.74-2.98-8.52-6.84-11.36-11.58-2.84-4.73-4.26-10.67-4.26-17.81,0-7.86,1.6-14.67,4.81-20.42,3.2-5.76,7.46-10.49,12.78-14.2,5.31-3.72,21.51-14.45,18.13-8.3-13.48,24.52-244.71,333.36,20.87-2.73,1.86-2.36,149.48,65.16,149.48,65.16,4.54-1.15-137.1-66.7-127.2-62.32,9.93,4.4,12.92,4.93,18.03,8.96,5.17,4.08,9.25,9.21,12.23,15.4,2.98,6.19,4.62,13.58,4.92,22.17h-19.66c-1.17-11.21-5.21-19.34-12.12-24.36Z"/>
  <path class="cls-1" d="M266.64,55.8s52.43-41.47,52.43-41.44v25.86c0,2.87,0,5.75,0,8.62v35.36c2.2-2.17,4.41-4.34,6.61-6.51,1.51-1.49,3.02-2.97,4.53-4.46,1.64-1.61,3.28-3.22,4.91-4.83.01-.01,6.79-6.68,6.8-6.69.02-.02-22.88,100.72-22.86,100.69.04-.04,35.72-113.34,35.72-113.34,2.08-2.05,4.16-4.09,6.24-6.14,0,0,8.07-7.94,8.13-7.99,1.89-1.86,3.78-3.72,5.67-5.58.05-.05,7.34-7.22,7.36-7.24.06-.06,6.21-6.11,6.23-6.13l5.14-5.05s4.57-4.5,4.59-4.51h9.25c.06,0,6.34,0,6.37,0h3.75c.06,0-150.94,49.37-150.88,49.37-.17.17,151.04-42.34,150.87-42.19-.07.07-4.99,4.78-5.01,4.79,0,0-4.15,3.97-4.18,4-.02.02-5.14,4.92-5.16,4.93-2.24,2.14-4.48,4.29-6.72,6.43-2.11,2.02-4.21,4.03-6.32,6.05-.04.04-6.71,6.42-6.73,6.44-.01.01-4.56,4.36-4.58,4.38-.04.03-6.87,6.57-6.89,6.59-.02.02-6.87,6.57-6.92,6.62-1.92,1.83-3.83,3.66-5.75,5.5,1.63,2.23,3.27,4.45,4.9,6.68,2.34,3.18,4.68,6.37,7.02,9.55.01.02,5.14,6.99,5.14,7,2.32,3.16,4.64,6.32,6.96,9.48,2.18,2.96,4.35,5.92,6.53,8.88,2.16,2.95,4.33,5.89,6.49,8.84,2.25,3.06,4.5,6.12,6.75,9.19.03.04,5.82,7.92,5.82,7.93,2.01,2.73,4.02,5.47,6.02,8.2,0,0,6.39,8.7,6.43,8.75,2.1,2.86-104.38-41.14-102.28-38.28-2,0,104.58,46.85,102.58,46.85h-20.22c-.04-.05-5.72-8.01-5.76-8.06-1.09-1.53-2.18-3.05-3.27-4.58-1.6-2.23-3.19-4.47-4.79-6.7-1.61-2.26-3.23-4.52-4.84-6.78-.03-.04-4.53-6.34-4.54-6.36-.02-.03-3.73-5.22-3.74-5.24-1.7-2.38-3.4-4.76-5.1-7.14-.01-.02-4.73-6.61-4.76-6.66-.06-.08-4.86-6.8-4.86-6.8-1.38-1.93-2.75-3.85-4.13-5.78,0-.01-4.99-6.99-5.01-7.01-1.86-2.6-3.71-5.19-5.57-7.79-.14.13-8.05,7.51-8.18,7.63-1.61,1.5-3.22,3.01-4.83,4.51-.03.03-6.62,6.17-6.66,6.21-.02.02-6.3,5.88-6.32,5.9,0,.04,0,7.72,0,7.77,0,3.25-52.43-63.01-52.43-59.77,0,3.88,52.43,77.26,52.43,81.14v18.37s0,7.08,0,7.1c-.24,0-7.4,0-7.62,0,0,0-4.1,0-4.12,0-.08,0-4.48,0-4.5,0-.11,0-4.39,0-4.51,0,0-.03,0-8.21,0-8.24v-15.37c0-.06,0-10.1,0-10.12,0-.04,0-7.83,0-7.87,0-.03,0-10.07,0-10.13,0-.03,0-6.75,0-6.75v-6.36s0-6.71,0-6.74c0,0,0-4.87,0-4.87V21.45s0-7.07,0-7.09v-7.93c.06,0,4.83,0,4.88,0h10.12c.06,0-46.74,49.37-46.68,49.37Z"/>
</svg>