<?xml version="1.0" encoding="UTF-8"?>
<svg id="_レイヤー_1" data-name=" レイヤー 1" xmlns="http://www.w3.org/2000/svg" version="1.1" viewBox="0 0 437 180">
  <defs>
    <style>
      .cls-1 {
        fill: #231815;
        stroke: #000;
        stroke-miterlimit: 10;
      }
    </style>
  </defs>
  <path class="cls-1" d="M82.9,162.3h-13.2c-.4,0,98.2-47.5,97.8-47.5,0,0-105.3,40.2-105.3,40.1v-49.5c0,0,161.2-27.1,161.2-27.2-1.1-1.7-163.3,16.9-164.4,15.2-1.5-2.3-3-4.7-4.6-7,0,0-3.6-5.4-3.6-5.5,0,0-4.5-6.9-4.6-7-1.3-2-2.7-4.1-4-6.1-1.8-2.7,208.4-9.5,206.6-12.2-1.7-2.6-215.3-1.1-217-3.8,0,0-4.3-6.6-4.3-6.6-1.2-1.8-2.4-3.6-3.6-5.5,0,0-5.3-8.1-5.3-8.1,0,0-3-4.6-3-4.6,0,0-3.4-5.3-3.5-5.3,0,0-5-7.6-5-7.7-1.7-2.6,162.2,103.2,160.4,100.5,0,0-158.2-108.5-158.1-108.5h17.2s2,3.2,2,3.2c0,0,3.1,4.9,3.1,4.9,0,0,2.8,4.5,2.8,4.5,1.6,2.5,3.2,5,4.8,7.6,0,0,3.6,5.8,3.7,5.8,1.1,1.8,2.2,3.6,3.4,5.3,1.1,1.8,2.2,3.5,3.3,5.3l3.7,5.8c1.2,1.9,2.4,3.9,3.7,5.8,0,0,6,9.6,6.1,9.6,0,0,4.5,7.1,4.5,7.1,0,0,2.5,4,2.5,4,0,0,3.4,5.3,3.4,5.4,1.2-1.9,2.3-3.8,3.5-5.7,0,0,109.8-67.2,109.8-67.2.9-1.5-104.8,59.1-103.8,57.6.8-1.3,1.7-2.7,2.5-4.1,0,0,4.7-7.6,4.7-7.7,1.6-2.6,3.2-5.2,4.8-7.8,1-1.7,2.1-3.4,3.1-5,0,0,5.4-8.8,5.4-8.9,0,0,5.1-8.3,5.1-8.3,0,0,115,54.7,115,54.7,0,0-104.4-71.9-104.4-72h23.6c0,0-5.8,9-5.9,9,0,.1-4.9,7.6-4.9,7.6-1.9,2.9-3.8,5.8-5.6,8.7,0,0-5.5,8.5-5.5,8.5,0,0-7,10.8-7,10.8,0,0-5.3,8.2-5.3,8.2,0,0-5.7,8.7-5.7,8.8,0,0-5.4,8.4-5.4,8.4,0,0-4.7,7.2-4.7,7.2,0,0-5.2,8-5.2,8.1,0,0-4.3,6.7-4.4,6.7v63.8h0Z"/>
  <path class="cls-1" d="M234.9,31.4c-6.9-5-15.8-7.5-26.5-7.5s-8.7.4-12.9,1.3c-4.2.9-8,2.3-11.2,4.4s-5.9,4.8-7.9,8.2c-2,3.4-2.9,7.7-2.9,12.8s1.4,8.7,4.3,11.7c2.8,3,6.6,5.4,11.4,7.3,4.7,1.9,103.4,91.6,109.3,92.9s-81.2-85.6-75-84.1c6.2,1.5,12.3,3.2,18.2,5.1s11.3,4.6,16.1,8c4.7,3.4,8.5,7.6,11.4,12.7s4.3,11.5,4.3,19.2-1.9,15.4-5.6,21.3c-3.7,5.9-8.5,10.7-14.3,14.4-5.8,3.7-12.3,6.4-19.6,8.1s-14.4,2.5-21.5,2.5-17-1.1-24.8-3.3c-7.8-2.2-14.6-5.5-20.5-9.9-5.9-4.4-10.6-10.1-14-17s145.4-26,145.4-35.4l-130.9,10.9c0,6.6,1.3,12.2,3.8,16.9,2.5,4.7,5.9,8.6,10.1,11.7,4.1,3.1,9,5.3,14.5,6.8,5.5,1.5,11.2,2.2,17,2.2s9.4-.4,14.1-1.3,9-2.4,12.8-4.5c3.8-2.1,6.8-5,9.2-8.6s3.5-8.3,3.5-14-1.4-9.8-4.3-13.1-6.6-6.1-11.4-8.2c-4.7-2.1-10.1-3.8-16.1-5.1-6-1.3-12.1-2.7-18.2-4-6.2-1.4-12.3-3-18.2-4.8s-11.3-4.2-16.1-7.2c-4.7-3-8.5-6.8-11.4-11.6-2.8-4.7-4.3-10.7-4.3-17.8s1.6-14.7,4.8-20.4c3.2-5.8,7.5-10.5,12.8-14.2,5.3-3.7,21.5-14.4,18.1-8.3-13.5,24.5-244.7,333.4,20.9-2.7,1.9-2.4,149.5,65.2,149.5,65.2,4.5-1.2-137.1-66.7-127.2-62.3,9.9,4.4,12.9,4.9,18,9,5.2,4.1,9.3,9.2,12.2,15.4,3,6.2,4.6,13.6,4.9,22.2h-19.7c-1.2-11.2-5.2-19.3-12.1-24.4h0Z"/>
  <path class="cls-1" d="M266.6,55.8s52.4-41.5,52.4-41.4v69.8c2.2-2.2,4.4-4.3,6.6-6.5,1.5-1.5,3-3,4.5-4.5,1.6-1.6,3.3-3.2,4.9-4.8,0,0,6.8-6.7,6.8-6.7,0,0-22.9,100.7-22.9,100.7,0,0,35.7-113.3,35.7-113.3,2.1-2,4.2-4.1,6.2-6.1,0,0,8.1-7.9,8.1-8,1.9-1.9,3.8-3.7,5.7-5.6,0,0,7.3-7.2,7.4-7.2,0,0,6.2-6.1,6.2-6.1l5.1-5.1s4.6-4.5,4.6-4.5h19.4c0,0-150.9,49.4-150.9,49.4-.2.2,151-42.3,150.9-42.2,0,0-5,4.8-5,4.8,0,0-4.1,4-4.2,4,0,0-5.1,4.9-5.2,4.9-2.2,2.1-4.5,4.3-6.7,6.4-2.1,2-4.2,4-6.3,6,0,0-6.7,6.4-6.7,6.4,0,0-4.6,4.4-4.6,4.4,0,0-6.9,6.6-6.9,6.6,0,0-6.9,6.6-6.9,6.6-1.9,1.8-3.8,3.7-5.8,5.5,1.6,2.2,3.3,4.4,4.9,6.7,2.3,3.2,4.7,6.4,7,9.6,0,0,5.1,7,5.1,7,2.3,3.2,4.6,6.3,7,9.5,2.2,3,4.4,5.9,6.5,8.9,2.2,2.9,4.3,5.9,6.5,8.8,2.2,3.1,4.5,6.1,6.8,9.2,0,0,5.8,7.9,5.8,7.9,2,2.7,4,5.5,6,8.2,0,0,6.4,8.7,6.4,8.8,2.1,2.9-104.4-41.1-102.3-38.3-2,0,104.6,46.8,102.6,46.8h-20.2c0,0-5.7-8-5.8-8.1-1.1-1.5-2.2-3.1-3.3-4.6-1.6-2.2-3.2-4.5-4.8-6.7-1.6-2.3-3.2-4.5-4.8-6.8,0,0-4.5-6.3-4.5-6.4,0,0-3.7-5.2-3.7-5.2-1.7-2.4-3.4-4.8-5.1-7.1,0,0-4.7-6.6-4.8-6.7,0,0-4.9-6.8-4.9-6.8-1.4-1.9-2.8-3.8-4.1-5.8,0,0-5-7-5-7-1.9-2.6-3.7-5.2-5.6-7.8-.1.1-8,7.5-8.2,7.6-1.6,1.5-3.2,3-4.8,4.5,0,0-6.6,6.2-6.7,6.2,0,0-6.3,5.9-6.3,5.9v7.8c0,3.2-52.4-63-52.4-59.8s52.4,77.3,52.4,81.1v25.5h-20.8V6.4h15c0,0-46.7,49.4-46.7,49.4h0Z"/>
</svg>